<?xml version="1.0" encoding="UTF-8" standalone="no"?><!DOCTYPE svg PUBLIC "-//W3C//DTD SVG 1.1//EN" "http://www.w3.org/Graphics/SVG/1.1/DTD/svg11.dtd"><!-- Generated by graphviz version 2.39.20160930.0541 (20160930.0541) --><!-- Title: FlowChart Pages: 1 --><svg width="557pt" height="1685pt" viewBox="0.00 0.00 556.93 1685.00" xmlns="http://www.w3.org/2000/svg" xmlns:xlink="http://www.w3.org/1999/xlink"><g id="page0,1_graph0" class="graph" transform="scale(0.618122 0.618122) rotate(0) translate(4 2722)"><title>FlowChart</title><g id="clust1" class="cluster"><title>cluster_block_8</title><polygon fill="transparent" stroke="#000000" points="509,-2074 509,-2315 777,-2315 777,-2074 509,-2074"/><text text-anchor="start" x="628" y="-2303" font-family="Open Sans, Noto Sans SC, Noto Sans TC, Noto Sans JP, Noto Sans KR" font-size="10.00" fill="#000000">skarga</text></g><!-- switch_block_1 --><g id="node1" class="node"><title>switch_block_1</title><polygon fill="none" stroke="#000000" points="713,-2655 670.585,-2637 713,-2619 755.415,-2637 713,-2655"/><text text-anchor="start" x="695.5" y="-2634.5" font-family="Open Sans, Noto Sans SC, Noto Sans TC, Noto Sans JP, Noto Sans KR" font-size="10.00" fill="#000000">Rodzice</text></g><!-- switch_block_5 --><g id="node5" class="node"><title>switch_block_5</title><polygon fill="none" stroke="#000000" points="599,-2582 560.909,-2564 599,-2546 637.091,-2564 599,-2582"/><text text-anchor="start" x="584" y="-2561.5" font-family="Open Sans, Noto Sans SC, Noto Sans TC, Noto Sans JP, Noto Sans KR" font-size="10.00" fill="#000000">Szpital</text></g><!-- switch_block_1&#45;&gt;switch_block_5 --><g id="edge1" class="edge"><title>switch_block_1&#45;&gt;switch_block_5</title><path fill="none" stroke="#000000" d="M678.113,-2633.65C643.171,-2629.49 592.915,-2621.04 581,-2606 576.15,-2599.88 577.692,-2592.26 581.426,-2585.19"/><polygon fill="#000000" stroke="#000000" points="584.443,-2586.97 587.013,-2576.69 578.594,-2583.13 584.443,-2586.97"/><text text-anchor="start" x="581" y="-2599" font-family="Open Sans, Noto Sans SC, Noto Sans TC, Noto Sans JP, Noto Sans KR" font-weight="bold" font-size="10.00" fill="#000000"> </text><text text-anchor="start" x="583" y="-2599" font-family="Open Sans, Noto Sans SC, Noto Sans TC, Noto Sans JP, Noto Sans KR" font-weight="bold" font-style="italic" font-size="10.00" fill="#000000">#RO_10.</text><text text-anchor="start" x="620" y="-2599" font-family="Open Sans, Noto Sans SC, Noto Sans TC, Noto Sans JP, Noto Sans KR" font-weight="bold" font-size="10.00" fill="#000000"> Plan porodu </text><polyline fill="none" stroke="#000000" points="685,-2595 577.994,-2595 "/></g><!-- switch_block_1&#45;&gt;switch_block_5 --><g id="edge2" class="edge"><title>switch_block_1&#45;&gt;switch_block_5</title><path fill="none" stroke="#000000" d="M713.145,-2618.75C712.279,-2610.56 709.88,-2601.34 704,-2595 694.761,-2585.03 663.075,-2576.53 636.906,-2570.96"/><polygon fill="#000000" stroke="#000000" points="637.34,-2567.48 626.841,-2568.9 635.937,-2574.33 637.34,-2567.48"/><text text-anchor="start" x="711" y="-2599" font-family="Open Sans, Noto Sans SC, Noto Sans TC, Noto Sans JP, Noto Sans KR" font-weight="bold" font-size="10.00" fill="#000000"> </text><text text-anchor="start" x="713" y="-2599" font-family="Open Sans, Noto Sans SC, Noto Sans TC, Noto Sans JP, Noto Sans KR" font-weight="bold" font-style="italic" font-size="10.00" fill="#000000">#RO_20.</text><text text-anchor="start" x="750" y="-2599" font-family="Open Sans, Noto Sans SC, Noto Sans TC, Noto Sans JP, Noto Sans KR" font-weight="bold" font-size="10.00" fill="#000000"> Informacja o nieszczepieniu </text><polyline fill="none" stroke="#000000" points="893,-2595 704.541,-2595 "/></g><!-- terminator_block_2 --><g id="node2" class="node"><title>terminator_block_2</title><ellipse fill="none" stroke="#000000" cx="119" cy="-2418" rx="30.0436" ry="18"/><text text-anchor="start" x="101.5" y="-2415.5" font-family="Open Sans, Noto Sans SC, Noto Sans TC, Noto Sans JP, Noto Sans KR" font-size="10.00" fill="#000000">Rodzice</text></g><!-- switch_block_3 --><g id="node3" class="node"><title>switch_block_3</title><polygon fill="none" stroke="#000000" points="323,-2509 262.455,-2491 323,-2473 383.545,-2491 323,-2509"/><text text-anchor="start" x="294.5" y="-2488.5" font-family="Open Sans, Noto Sans SC, Noto Sans TC, Noto Sans JP, Noto Sans KR" font-size="10.00" fill="#000000">Przychodnia</text></g><!-- switch_block_3&#45;&gt;terminator_block_2 --><g id="edge4" class="edge"><title>switch_block_3&#45;&gt;terminator_block_2</title><path fill="none" stroke="#000000" d="M277.737,-2486.33C248.111,-2482.1 209.088,-2474.25 177,-2460 165.4,-2454.85 153.828,-2447.13 144.106,-2439.7"/><polygon fill="#000000" stroke="#000000" points="146.091,-2436.81 136.085,-2433.33 141.736,-2442.29 146.091,-2436.81"/><text text-anchor="start" x="177" y="-2453" font-family="Open Sans, Noto Sans SC, Noto Sans TC, Noto Sans JP, Noto Sans KR" font-weight="bold" font-size="10.00" fill="#000000"> </text><text text-anchor="start" x="179" y="-2453" font-family="Open Sans, Noto Sans SC, Noto Sans TC, Noto Sans JP, Noto Sans KR" font-weight="bold" font-style="italic" font-size="10.00" fill="#000000">#PZ_20.</text><text text-anchor="start" x="214" y="-2453" font-family="Open Sans, Noto Sans SC, Noto Sans TC, Noto Sans JP, Noto Sans KR" font-weight="bold" font-size="10.00" fill="#000000"> wpisy w karcie zdrowia dziecka </text><polyline fill="none" stroke="#000000" points="374,-2449 155.728,-2449 "/></g><!-- terminator_block_4 --><g id="node4" class="node"><title>terminator_block_4</title><ellipse fill="none" stroke="#000000" cx="489" cy="-2418" rx="42.9448" ry="18"/><text text-anchor="start" x="460.5" y="-2415.5" font-family="Open Sans, Noto Sans SC, Noto Sans TC, Noto Sans JP, Noto Sans KR" font-size="10.00" fill="#000000">Przychodnia</text></g><!-- switch_block_3&#45;&gt;terminator_block_4 --><g id="edge3" class="edge"><title>switch_block_3&#45;&gt;terminator_block_4</title><path fill="none" stroke="#000000" d="M347.494,-2480.23C374.465,-2468.37 418.208,-2449.13 449.927,-2435.18"/><polygon fill="#000000" stroke="#000000" points="451.607,-2438.27 459.352,-2431.04 448.79,-2431.86 451.607,-2438.27"/><text text-anchor="start" x="416" y="-2453" font-family="Open Sans, Noto Sans SC, Noto Sans TC, Noto Sans JP, Noto Sans KR" font-weight="bold" font-size="10.00" fill="#000000"> </text><text text-anchor="start" x="418" y="-2453" font-family="Open Sans, Noto Sans SC, Noto Sans TC, Noto Sans JP, Noto Sans KR" font-weight="bold" font-style="italic" font-size="10.00" fill="#000000">#PZ_10.</text><text text-anchor="start" x="453" y="-2453" font-family="Open Sans, Noto Sans SC, Noto Sans TC, Noto Sans JP, Noto Sans KR" font-weight="bold" font-size="10.00" fill="#000000"> karta dziecka </text><polyline fill="none" stroke="#000000" points="525,-2449 417.546,-2449 "/></g><!-- process_block_7 --><g id="node7" class="node"><title>process_block_7</title><polygon fill="none" stroke="#000000" points="654.5,-2373 591.5,-2373 591.5,-2337 654.5,-2337 654.5,-2373"/><text text-anchor="start" x="598.5" y="-2352.5" font-family="Open Sans, Noto Sans SC, Noto Sans TC, Noto Sans JP, Noto Sans KR" font-size="10.00" fill="#000000">informacja</text></g><!-- terminator_block_4&#45;&gt;process_block_7 --><g id="edge9" class="edge"><title>terminator_block_4&#45;&gt;process_block_7</title><path fill="none" stroke="#000000" d="M517.746,-2404.48C536.552,-2395.64 561.405,-2383.96 582.239,-2374.16"/><polygon fill="#000000" stroke="#000000" points="583.931,-2377.24 591.492,-2369.81 580.953,-2370.9 583.931,-2377.24"/></g><!-- switch_block_5&#45;&gt;switch_block_3 --><g id="edge7" class="edge"><title>switch_block_5&#45;&gt;switch_block_3</title><path fill="none" stroke="#000000" d="M566.085,-2561.39C513.268,-2556.85 412.154,-2546.7 379,-2533 366.838,-2527.98 354.945,-2519.69 345.27,-2511.8"/><polygon fill="#000000" stroke="#000000" points="347.263,-2508.89 337.388,-2505.05 342.713,-2514.21 347.263,-2508.89"/><text text-anchor="start" x="379" y="-2526" font-family="Open Sans, Noto Sans SC, Noto Sans TC, Noto Sans JP, Noto Sans KR" font-weight="bold" font-size="10.00" fill="#000000"> </text><text text-anchor="start" x="381" y="-2526" font-family="Open Sans, Noto Sans SC, Noto Sans TC, Noto Sans JP, Noto Sans KR" font-weight="bold" font-style="italic" font-size="10.00" fill="#000000">#SZ_30.</text><text text-anchor="start" x="416" y="-2526" font-family="Open Sans, Noto Sans SC, Noto Sans TC, Noto Sans JP, Noto Sans KR" font-weight="bold" font-size="10.00" fill="#000000"> powiadomienie przychodni </text><polyline fill="none" stroke="#000000" points="556,-2522 359.079,-2522 "/></g><!-- terminator_block_6 --><g id="node6" class="node"><title>terminator_block_6</title><ellipse fill="none" stroke="#000000" cx="674" cy="-2491" rx="30.0436" ry="18"/><text text-anchor="start" x="656.5" y="-2488.5" font-family="Open Sans, Noto Sans SC, Noto Sans TC, Noto Sans JP, Noto Sans KR" font-size="10.00" fill="#000000">Rodzice</text></g><!-- switch_block_5&#45;&gt;terminator_block_6 --><g id="edge5" class="edge"><title>switch_block_5&#45;&gt;terminator_block_6</title><path fill="none" stroke="#000000" d="M587.262,-2551.49C580.498,-2542.73 574.506,-2531.01 581,-2522 587.675,-2512.74 612.891,-2504.67 635.385,-2499.09"/><polygon fill="#000000" stroke="#000000" points="636.201,-2502.49 645.122,-2496.78 634.585,-2495.68 636.201,-2502.49"/><text text-anchor="start" x="581" y="-2526" font-family="Open Sans, Noto Sans SC, Noto Sans TC, Noto Sans JP, Noto Sans KR" font-weight="bold" font-size="10.00" fill="#000000"> </text><text text-anchor="start" x="583" y="-2526" font-family="Open Sans, Noto Sans SC, Noto Sans TC, Noto Sans JP, Noto Sans KR" font-weight="bold" font-style="italic" font-size="10.00" fill="#000000">#SZ_10.</text><text text-anchor="start" x="618" y="-2526" font-family="Open Sans, Noto Sans SC, Noto Sans TC, Noto Sans JP, Noto Sans KR" font-weight="bold" font-size="10.00" fill="#000000"> wypis </text><polyline fill="none" stroke="#000000" points="651,-2522 580.427,-2522 "/></g><!-- switch_block_5&#45;&gt;terminator_block_6 --><g id="edge6" class="edge"><title>switch_block_5&#45;&gt;terminator_block_6</title><path fill="none" stroke="#000000" d="M626.924,-2558.96C642.148,-2554.69 659.898,-2546.94 670,-2533 672.909,-2528.99 674.559,-2524.16 675.413,-2519.23"/><polygon fill="#000000" stroke="#000000" points="678.908,-2519.43 676.196,-2509.19 671.929,-2518.89 678.908,-2519.43"/><text text-anchor="start" x="675" y="-2526" font-family="Open Sans, Noto Sans SC, Noto Sans TC, Noto Sans JP, Noto Sans KR" font-weight="bold" font-size="10.00" fill="#000000"> </text><text text-anchor="start" x="677" y="-2526" font-family="Open Sans, Noto Sans SC, Noto Sans TC, Noto Sans JP, Noto Sans KR" font-weight="bold" font-style="italic" font-size="10.00" fill="#000000">#SZ_20.</text><text text-anchor="start" x="712" y="-2526" font-family="Open Sans, Noto Sans SC, Noto Sans TC, Noto Sans JP, Noto Sans KR" font-weight="bold" font-size="10.00" fill="#000000"> książeczka szczepień </text><polyline fill="none" stroke="#000000" points="820,-2522 674.616,-2522 "/></g><!-- terminator_block_6&#45;&gt;process_block_7 --><g id="edge8" class="edge"><title>terminator_block_6&#45;&gt;process_block_7</title><path fill="none" stroke="#000000" d="M667.333,-2473.22C658.714,-2450.24 643.609,-2409.96 633.457,-2382.88"/><polygon fill="#000000" stroke="#000000" points="636.62,-2381.35 629.832,-2373.22 630.066,-2383.81 636.62,-2381.35"/></g><!-- process_block_9 --><g id="node8" class="node"><title>process_block_9</title><polygon fill="none" stroke="#000000" points="650,-2276 596,-2276 596,-2240 650,-2240 650,-2276"/><text text-anchor="start" x="605.5" y="-2255.5" font-family="Open Sans, Noto Sans SC, Noto Sans TC, Noto Sans JP, Noto Sans KR" font-size="10.00" fill="#000000">Rodzice</text></g><!-- process_block_7&#45;&gt;process_block_9 --><g id="edge10" class="edge"><title>process_block_7&#45;&gt;process_block_9</title><path fill="none" stroke="#000000" d="M623,-2336.76C623,-2322.53 623,-2302.52 623,-2286.23"/><polygon fill="#000000" stroke="#000000" points="626.5,-2286.16 623,-2276.16 619.5,-2286.16 626.5,-2286.16"/></g><!-- process_block_10 --><g id="node9" class="node"><title>process_block_10</title><polygon fill="none" stroke="#000000" points="650,-2203 596,-2203 596,-2167 650,-2167 650,-2203"/><text text-anchor="start" x="608.5" y="-2182.5" font-family="Open Sans, Noto Sans SC, Noto Sans TC, Noto Sans JP, Noto Sans KR" font-size="10.00" fill="#000000">Organ</text></g><!-- process_block_9&#45;&gt;process_block_10 --><g id="edge11" class="edge"><title>process_block_9&#45;&gt;process_block_10</title><path fill="none" stroke="#000000" d="M623,-2239.96C623,-2231.88 623,-2222.18 623,-2213.18"/><polygon fill="#000000" stroke="#000000" points="626.5,-2213.09 623,-2203.09 619.5,-2213.09 626.5,-2213.09"/><text text-anchor="start" x="623" y="-2220" font-family="Open Sans, Noto Sans SC, Noto Sans TC, Noto Sans JP, Noto Sans KR" font-weight="bold" font-size="10.00" fill="#000000"> zażalenie na przewlekłość </text><polyline fill="none" stroke="#000000" points="757,-2216 623,-2216 "/></g><!-- process_block_11 --><g id="node10" class="node"><title>process_block_11</title><polygon fill="none" stroke="#000000" points="698,-2130 548,-2130 548,-2094 698,-2094 698,-2130"/><text text-anchor="start" x="555" y="-2109.5" font-family="Open Sans, Noto Sans SC, Noto Sans TC, Noto Sans JP, Noto Sans KR" font-size="10.00" fill="#000000">Organ [odpowiedź na skargę]</text></g><!-- process_block_10&#45;&gt;process_block_11 --><g id="edge12" class="edge"><title>process_block_10&#45;&gt;process_block_11</title><path fill="none" stroke="#000000" d="M623,-2166.96C623,-2158.88 623,-2149.18 623,-2140.18"/><polygon fill="#000000" stroke="#000000" points="626.5,-2140.09 623,-2130.09 619.5,-2140.09 626.5,-2140.09"/><text text-anchor="start" x="623" y="-2147" font-family="Open Sans, Noto Sans SC, Noto Sans TC, Noto Sans JP, Noto Sans KR" font-weight="bold" font-size="10.00" fill="#000000"> przedłużka </text><polyline fill="none" stroke="#000000" points="683,-2143 623,-2143 "/></g><!-- process_block_12 --><g id="node11" class="node"><title>process_block_12</title><polygon fill="none" stroke="#000000" points="737.5,-2052 508.5,-2052 508.5,-2016 737.5,-2016 737.5,-2052"/><text text-anchor="start" x="515.5" y="-2031.5" font-family="Open Sans, Noto Sans SC, Noto Sans TC, Noto Sans JP, Noto Sans KR" font-size="10.00" fill="#000000">Przychodnia&#45;Rodzice 1. pismo przypominające</text></g><!-- process_block_11&#45;&gt;process_block_12 --><g id="edge13" class="edge"><title>process_block_11&#45;&gt;process_block_12</title><path fill="none" stroke="#000000" d="M623,-2093.91C623,-2084.53 623,-2072.85 623,-2062.3"/><polygon fill="#000000" stroke="#000000" points="626.5,-2062.26 623,-2052.26 619.5,-2062.26 626.5,-2062.26"/></g><!-- process_block_13 --><g id="node12" class="node"><title>process_block_13</title><polygon fill="none" stroke="#000000" points="734.5,-1989 511.5,-1989 511.5,-1953 734.5,-1953 734.5,-1989"/><text text-anchor="start" x="518.5" y="-1968.5" font-family="Open Sans, Noto Sans SC, Noto Sans TC, Noto Sans JP, Noto Sans KR" font-size="10.00" fill="#000000">Przychodnia&#45;PIS  1a. kwartalne sprawozdanie</text></g><!-- process_block_12&#45;&gt;process_block_13 --><g id="edge14" class="edge"><title>process_block_12&#45;&gt;process_block_13</title><path fill="none" stroke="#000000" d="M623,-2015.78C623,-2010.73 623,-2005.12 623,-1999.63"/><polygon fill="#000000" stroke="#000000" points="626.5,-1999.4 623,-1989.4 619.5,-1999.4 626.5,-1999.4"/></g><!-- process_block_14 --><g id="node13" class="node"><title>process_block_14</title><polygon fill="none" stroke="#000000" points="717.5,-1926 528.5,-1926 528.5,-1890 717.5,-1890 717.5,-1926"/><text text-anchor="start" x="535.5" y="-1905.5" font-family="Open Sans, Noto Sans SC, Noto Sans TC, Noto Sans JP, Noto Sans KR" font-size="10.00" fill="#000000">PIS&#45;Rodzice  2. pismo przypominające</text></g><!-- process_block_13&#45;&gt;process_block_14 --><g id="edge15" class="edge"><title>process_block_13&#45;&gt;process_block_14</title><path fill="none" stroke="#000000" d="M623,-1952.78C623,-1947.73 623,-1942.12 623,-1936.63"/><polygon fill="#000000" stroke="#000000" points="626.5,-1936.4 623,-1926.4 619.5,-1936.4 626.5,-1936.4"/></g><!-- process_block_15 --><g id="node14" class="node"><title>process_block_15</title><polygon fill="none" stroke="#000000" points="687.5,-1863 558.5,-1863 558.5,-1827 687.5,-1827 687.5,-1863"/><text text-anchor="start" x="565.5" y="-1842.5" font-family="Open Sans, Noto Sans SC, Noto Sans TC, Noto Sans JP, Noto Sans KR" font-size="10.00" fill="#000000">PIS&#45;Rodzice  3. wezwanie</text></g><!-- process_block_14&#45;&gt;process_block_15 --><g id="edge16" class="edge"><title>process_block_14&#45;&gt;process_block_15</title><path fill="none" stroke="#000000" d="M623,-1889.78C623,-1884.73 623,-1879.12 623,-1873.63"/><polygon fill="#000000" stroke="#000000" points="626.5,-1873.4 623,-1863.4 619.5,-1873.4 626.5,-1873.4"/></g><!-- process_block_16 --><g id="node15" class="node"><title>process_block_16</title><polygon fill="none" stroke="#000000" points="724,-1800 522,-1800 522,-1764 724,-1764 724,-1800"/><text text-anchor="start" x="529" y="-1779.5" font-family="Open Sans, Noto Sans SC, Noto Sans TC, Noto Sans JP, Noto Sans KR" font-size="10.00" fill="#000000">Rodzice&#45;PIS  3a. odpowiedź na wezwanie</text></g><!-- process_block_15&#45;&gt;process_block_16 --><g id="edge17" class="edge"><title>process_block_15&#45;&gt;process_block_16</title><path fill="none" stroke="#000000" d="M623,-1826.78C623,-1821.73 623,-1816.12 623,-1810.63"/><polygon fill="#000000" stroke="#000000" points="626.5,-1810.4 623,-1800.4 619.5,-1810.4 626.5,-1810.4"/></g><!-- process_block_17 --><g id="node16" class="node"><title>process_block_17</title><polygon fill="none" stroke="#000000" points="692.5,-1737 553.5,-1737 553.5,-1701 692.5,-1701 692.5,-1737"/><text text-anchor="start" x="560.5" y="-1716.5" font-family="Open Sans, Noto Sans SC, Noto Sans TC, Noto Sans JP, Noto Sans KR" font-size="10.00" fill="#000000">PIS&#45;Rodzice  4. upomnienie</text></g><!-- process_block_16&#45;&gt;process_block_17 --><g id="edge18" class="edge"><title>process_block_16&#45;&gt;process_block_17</title><path fill="none" stroke="#000000" d="M623,-1763.78C623,-1758.73 623,-1753.12 623,-1747.63"/><polygon fill="#000000" stroke="#000000" points="626.5,-1747.4 623,-1737.4 619.5,-1747.4 626.5,-1747.4"/></g><!-- process_block_18 --><g id="node17" class="node"><title>process_block_18</title><polygon fill="none" stroke="#000000" points="729.5,-1674 516.5,-1674 516.5,-1638 729.5,-1638 729.5,-1674"/><text text-anchor="start" x="523.5" y="-1653.5" font-family="Open Sans, Noto Sans SC, Noto Sans TC, Noto Sans JP, Noto Sans KR" font-size="10.00" fill="#000000">Rodzice&#45;PIS  4a. odpowiedź na upomnienie</text></g><!-- process_block_17&#45;&gt;process_block_18 --><g id="edge19" class="edge"><title>process_block_17&#45;&gt;process_block_18</title><path fill="none" stroke="#000000" d="M623,-1700.78C623,-1695.73 623,-1690.12 623,-1684.63"/><polygon fill="#000000" stroke="#000000" points="626.5,-1684.4 623,-1674.4 619.5,-1684.4 626.5,-1684.4"/></g><!-- process_block_19 --><g id="node18" class="node"><title>process_block_19</title><polygon fill="none" stroke="#000000" points="715,-1611 531,-1611 531,-1575 715,-1575 715,-1611"/><text text-anchor="start" x="538" y="-1590.5" font-family="Open Sans, Noto Sans SC, Noto Sans TC, Noto Sans JP, Noto Sans KR" font-size="10.00" fill="#000000">PIS&#45;Wojewoda  4b. tytuł wykonawczy</text></g><!-- process_block_18&#45;&gt;process_block_19 --><g id="edge20" class="edge"><title>process_block_18&#45;&gt;process_block_19</title><path fill="none" stroke="#000000" d="M623,-1637.78C623,-1632.73 623,-1627.12 623,-1621.63"/><polygon fill="#000000" stroke="#000000" points="626.5,-1621.4 623,-1611.4 619.5,-1621.4 626.5,-1621.4"/></g><!-- process_block_20 --><g id="node19" class="node"><title>process_block_20</title><polygon fill="none" stroke="#000000" points="765,-1548 481,-1548 481,-1512 765,-1512 765,-1548"/><text text-anchor="start" x="488" y="-1527.5" font-family="Open Sans, Noto Sans SC, Noto Sans TC, Noto Sans JP, Noto Sans KR" font-size="10.00" fill="#000000">Wojewoda&#45;Rodzice  5. postanowienie o nałożeniu grzywny</text></g><!-- process_block_19&#45;&gt;process_block_20 --><g id="edge21" class="edge"><title>process_block_19&#45;&gt;process_block_20</title><path fill="none" stroke="#000000" d="M623,-1574.78C623,-1569.73 623,-1564.12 623,-1558.63"/><polygon fill="#000000" stroke="#000000" points="626.5,-1558.4 623,-1548.4 619.5,-1558.4 626.5,-1558.4"/></g><!-- process_block_21 --><g id="node20" class="node"><title>process_block_21</title><polygon fill="none" stroke="#000000" points="799,-1485 447,-1485 447,-1449 799,-1449 799,-1485"/><text text-anchor="start" x="454" y="-1464.5" font-family="Open Sans, Noto Sans SC, Noto Sans TC, Noto Sans JP, Noto Sans KR" font-size="10.00" fill="#000000">Rodzice&#45;Wojewoda  5.1. zażalenie na postanowienie o nałożeniu grzywny</text></g><!-- process_block_20&#45;&gt;process_block_21 --><g id="edge22" class="edge"><title>process_block_20&#45;&gt;process_block_21</title><path fill="none" stroke="#000000" d="M623,-1511.78C623,-1506.73 623,-1501.12 623,-1495.63"/><polygon fill="#000000" stroke="#000000" points="626.5,-1495.4 623,-1485.4 619.5,-1495.4 626.5,-1495.4"/></g><!-- process_block_22 --><g id="node21" class="node"><title>process_block_22</title><polygon fill="none" stroke="#000000" points="729,-1422 517,-1422 517,-1386 729,-1386 729,-1422"/><text text-anchor="start" x="524" y="-1401.5" font-family="Open Sans, Noto Sans SC, Noto Sans TC, Noto Sans JP, Noto Sans KR" font-size="10.00" fill="#000000">Wojewoda&#45;MZ  5.1.a przekazanie zażalenia</text></g><!-- process_block_21&#45;&gt;process_block_22 --><g id="edge23" class="edge"><title>process_block_21&#45;&gt;process_block_22</title><path fill="none" stroke="#000000" d="M623,-1448.78C623,-1443.73 623,-1438.12 623,-1432.63"/><polygon fill="#000000" stroke="#000000" points="626.5,-1432.4 623,-1422.4 619.5,-1432.4 626.5,-1432.4"/></g><!-- process_block_23 --><g id="node22" class="node"><title>process_block_23</title><polygon fill="none" stroke="#000000" points="766.5,-1359 479.5,-1359 479.5,-1323 766.5,-1323 766.5,-1359"/><text text-anchor="start" x="486.5" y="-1338.5" font-family="Open Sans, Noto Sans SC, Noto Sans TC, Noto Sans JP, Noto Sans KR" font-size="10.00" fill="#000000">Rodzice&#45;Wojewoda  5.2. wniosek o wstrzymanie wykonania</text></g><!-- process_block_22&#45;&gt;process_block_23 --><g id="edge24" class="edge"><title>process_block_22&#45;&gt;process_block_23</title><path fill="none" stroke="#000000" d="M623,-1385.78C623,-1380.73 623,-1375.12 623,-1369.63"/><polygon fill="#000000" stroke="#000000" points="626.5,-1369.4 623,-1359.4 619.5,-1369.4 626.5,-1369.4"/></g><!-- process_block_24 --><g id="node23" class="node"><title>process_block_24</title><polygon fill="none" stroke="#000000" points="727,-1296 519,-1296 519,-1260 727,-1260 727,-1296"/><text text-anchor="start" x="526" y="-1275.5" font-family="Open Sans, Noto Sans SC, Noto Sans TC, Noto Sans JP, Noto Sans KR" font-size="10.00" fill="#000000">Wojewoda&#45;MZ  5.2.a przekazanie wniosku</text></g><!-- process_block_23&#45;&gt;process_block_24 --><g id="edge25" class="edge"><title>process_block_23&#45;&gt;process_block_24</title><path fill="none" stroke="#000000" d="M623,-1322.78C623,-1317.73 623,-1312.12 623,-1306.63"/><polygon fill="#000000" stroke="#000000" points="626.5,-1306.4 623,-1296.4 619.5,-1306.4 626.5,-1306.4"/></g><!-- process_block_25 --><g id="node24" class="node"><title>process_block_25</title><polygon fill="none" stroke="#000000" points="780,-1233 466,-1233 466,-1197 780,-1197 780,-1233"/><text text-anchor="start" x="473" y="-1212.5" font-family="Open Sans, Noto Sans SC, Noto Sans TC, Noto Sans JP, Noto Sans KR" font-size="10.00" fill="#000000">Rodzice&#45;Wojewoda  5.3. zarzuty do postępowania egzekucyjnego</text></g><!-- process_block_24&#45;&gt;process_block_25 --><g id="edge26" class="edge"><title>process_block_24&#45;&gt;process_block_25</title><path fill="none" stroke="#000000" d="M623,-1259.78C623,-1254.73 623,-1249.12 623,-1243.63"/><polygon fill="#000000" stroke="#000000" points="626.5,-1243.4 623,-1233.4 619.5,-1243.4 626.5,-1243.4"/></g><!-- process_block_26 --><g id="node25" class="node"><title>process_block_26</title><polygon fill="none" stroke="#000000" points="774,-1170 472,-1170 472,-1134 774,-1134 774,-1170"/><text text-anchor="start" x="479" y="-1149.5" font-family="Open Sans, Noto Sans SC, Noto Sans TC, Noto Sans JP, Noto Sans KR" font-size="10.00" fill="#000000">Wojewoda&#45;Rodzice  6. postanowienie o odmowie wstrzymania</text></g><!-- process_block_25&#45;&gt;process_block_26 --><g id="edge27" class="edge"><title>process_block_25&#45;&gt;process_block_26</title><path fill="none" stroke="#000000" d="M623,-1196.78C623,-1191.73 623,-1186.12 623,-1180.63"/><polygon fill="#000000" stroke="#000000" points="626.5,-1180.4 623,-1170.4 619.5,-1180.4 626.5,-1180.4"/></g><!-- process_block_27 --><g id="node26" class="node"><title>process_block_27</title><polygon fill="none" stroke="#000000" points="784,-1107 462,-1107 462,-1071 784,-1071 784,-1107"/><text text-anchor="start" x="469" y="-1086.5" font-family="Open Sans, Noto Sans SC, Noto Sans TC, Noto Sans JP, Noto Sans KR" font-size="10.00" fill="#000000">Wojewoda&#45;Rodzice  7. postanowienie o zawieszeniu postępowania</text></g><!-- process_block_26&#45;&gt;process_block_27 --><g id="edge28" class="edge"><title>process_block_26&#45;&gt;process_block_27</title><path fill="none" stroke="#000000" d="M623,-1133.78C623,-1128.73 623,-1123.12 623,-1117.63"/><polygon fill="#000000" stroke="#000000" points="626.5,-1117.4 623,-1107.4 619.5,-1117.4 626.5,-1117.4"/></g><!-- process_block_28 --><g id="node27" class="node"><title>process_block_28</title><polygon fill="none" stroke="#000000" points="775,-1044 471,-1044 471,-1008 775,-1008 775,-1044"/><text text-anchor="start" x="478" y="-1023.5" font-family="Open Sans, Noto Sans SC, Noto Sans TC, Noto Sans JP, Noto Sans KR" font-size="10.00" fill="#000000">Wojewoda&#45;Rodzice  8. pismo w sprawie stanowiska wierzyciela</text></g><!-- process_block_27&#45;&gt;process_block_28 --><g id="edge29" class="edge"><title>process_block_27&#45;&gt;process_block_28</title><path fill="none" stroke="#000000" d="M623,-1070.78C623,-1065.73 623,-1060.12 623,-1054.63"/><polygon fill="#000000" stroke="#000000" points="626.5,-1054.4 623,-1044.4 619.5,-1054.4 626.5,-1054.4"/></g><!-- process_block_29 --><g id="node28" class="node"><title>process_block_29</title><polygon fill="none" stroke="#000000" points="798.5,-981 447.5,-981 447.5,-945 798.5,-945 798.5,-981"/><text text-anchor="start" x="454.5" y="-960.5" font-family="Open Sans, Noto Sans SC, Noto Sans TC, Noto Sans JP, Noto Sans KR" font-size="10.00" fill="#000000">MZ&#45;Rodzice  9. pismo  informujące o wstrzymaniu rozpatrzenia zażalenia</text></g><!-- process_block_28&#45;&gt;process_block_29 --><g id="edge30" class="edge"><title>process_block_28&#45;&gt;process_block_29</title><path fill="none" stroke="#000000" d="M623,-1007.78C623,-1002.73 623,-997.123 623,-991.634"/><polygon fill="#000000" stroke="#000000" points="626.5,-991.399 623,-981.4 619.5,-991.4 626.5,-991.399"/></g><!-- process_block_30 --><g id="node29" class="node"><title>process_block_30</title><polygon fill="none" stroke="#000000" points="756,-918 490,-918 490,-882 756,-882 756,-918"/><text text-anchor="start" x="497" y="-897.5" font-family="Open Sans, Noto Sans SC, Noto Sans TC, Noto Sans JP, Noto Sans KR" font-size="10.00" fill="#000000">PIS&#45;Rodzice  10. postanowienie o odrzuceniu zarzutów</text></g><!-- process_block_29&#45;&gt;process_block_30 --><g id="edge31" class="edge"><title>process_block_29&#45;&gt;process_block_30</title><path fill="none" stroke="#000000" d="M623,-944.778C623,-939.729 623,-934.123 623,-928.634"/><polygon fill="#000000" stroke="#000000" points="626.5,-928.399 623,-918.4 619.5,-928.4 626.5,-928.399"/></g><!-- process_block_31 --><g id="node30" class="node"><title>process_block_31</title><polygon fill="none" stroke="#000000" points="736,-855 510,-855 510,-819 736,-819 736,-855"/><text text-anchor="start" x="517" y="-834.5" font-family="Open Sans, Noto Sans SC, Noto Sans TC, Noto Sans JP, Noto Sans KR" font-size="10.00" fill="#000000">Rodzice&#45;WIS  10a. zażalenie na postanowienie</text></g><!-- process_block_30&#45;&gt;process_block_31 --><g id="edge32" class="edge"><title>process_block_30&#45;&gt;process_block_31</title><path fill="none" stroke="#000000" d="M623,-881.778C623,-876.729 623,-871.123 623,-865.634"/><polygon fill="#000000" stroke="#000000" points="626.5,-865.399 623,-855.4 619.5,-865.4 626.5,-865.399"/></g><!-- process_block_32 --><g id="node31" class="node"><title>process_block_32</title><polygon fill="none" stroke="#000000" points="842,-792 404,-792 404,-756 842,-756 842,-792"/><text text-anchor="start" x="411" y="-771.5" font-family="Open Sans, Noto Sans SC, Noto Sans TC, Noto Sans JP, Noto Sans KR" font-size="10.00" fill="#000000">WIS&#45;Rodzice  11. postanowienie utrzymujące w mocy postanowienie o odrzuceniu zarzutów</text></g><!-- process_block_31&#45;&gt;process_block_32 --><g id="edge33" class="edge"><title>process_block_31&#45;&gt;process_block_32</title><path fill="none" stroke="#000000" d="M623,-818.778C623,-813.729 623,-808.123 623,-802.634"/><polygon fill="#000000" stroke="#000000" points="626.5,-802.399 623,-792.4 619.5,-802.4 626.5,-802.399"/></g><!-- process_block_33 --><g id="node32" class="node"><title>process_block_33</title><polygon fill="none" stroke="#000000" points="731.5,-729 514.5,-729 514.5,-693 731.5,-693 731.5,-729"/><text text-anchor="start" x="521.5" y="-708.5" font-family="Open Sans, Noto Sans SC, Noto Sans TC, Noto Sans JP, Noto Sans KR" font-size="10.00" fill="#000000">Rodzice&#45;WSA  11a. skarga na postanowienie</text></g><!-- process_block_32&#45;&gt;process_block_33 --><g id="edge34" class="edge"><title>process_block_32&#45;&gt;process_block_33</title><path fill="none" stroke="#000000" d="M623,-755.778C623,-750.729 623,-745.123 623,-739.634"/><polygon fill="#000000" stroke="#000000" points="626.5,-739.399 623,-729.4 619.5,-739.4 626.5,-739.399"/></g><!-- process_block_34 --><g id="node33" class="node"><title>process_block_34</title><polygon fill="none" stroke="#000000" points="836,-666 410,-666 410,-630 836,-630 836,-666"/><text text-anchor="start" x="417" y="-645.5" font-family="Open Sans, Noto Sans SC, Noto Sans TC, Noto Sans JP, Noto Sans KR" font-size="10.00" fill="#000000">MZ&#45;Rodzice  12. postanowienie utrzymujące w mocy postanowienie nakładające grzywnę</text></g><!-- process_block_33&#45;&gt;process_block_34 --><g id="edge35" class="edge"><title>process_block_33&#45;&gt;process_block_34</title><path fill="none" stroke="#000000" d="M623,-692.778C623,-687.729 623,-682.123 623,-676.634"/><polygon fill="#000000" stroke="#000000" points="626.5,-676.399 623,-666.4 619.5,-676.4 626.5,-676.399"/></g><!-- process_block_35 --><g id="node34" class="node"><title>process_block_35</title><polygon fill="none" stroke="#000000" points="741,-603 505,-603 505,-567 741,-567 741,-603"/><text text-anchor="start" x="512" y="-582.5" font-family="Open Sans, Noto Sans SC, Noto Sans TC, Noto Sans JP, Noto Sans KR" font-size="10.00" fill="#000000">Rodzice&#45;WSA  12.1. skarga do WSA w Warszawie</text></g><!-- process_block_34&#45;&gt;process_block_35 --><g id="edge36" class="edge"><title>process_block_34&#45;&gt;process_block_35</title><path fill="none" stroke="#000000" d="M623,-629.778C623,-624.729 623,-619.123 623,-613.634"/><polygon fill="#000000" stroke="#000000" points="626.5,-613.399 623,-603.4 619.5,-613.4 626.5,-613.399"/></g><!-- process_block_36 --><g id="node35" class="node"><title>process_block_36</title><polygon fill="none" stroke="#000000" points="750,-540 496,-540 496,-504 750,-504 750,-540"/><text text-anchor="start" x="503" y="-519.5" font-family="Open Sans, Noto Sans SC, Noto Sans TC, Noto Sans JP, Noto Sans KR" font-size="10.00" fill="#000000">WSA&#45;Rodzice  12.1a. wyznaczenie terminu rozprawy</text></g><!-- process_block_35&#45;&gt;process_block_36 --><g id="edge37" class="edge"><title>process_block_35&#45;&gt;process_block_36</title><path fill="none" stroke="#000000" d="M623,-566.778C623,-561.729 623,-556.123 623,-550.634"/><polygon fill="#000000" stroke="#000000" points="626.5,-550.399 623,-540.4 619.5,-550.4 626.5,-550.399"/></g><!-- process_block_37 --><g id="node36" class="node"><title>process_block_37</title><polygon fill="none" stroke="#000000" points="715.5,-477 530.5,-477 530.5,-441 715.5,-441 715.5,-477"/><text text-anchor="start" x="537.5" y="-456.5" font-family="Open Sans, Noto Sans SC, Noto Sans TC, Noto Sans JP, Noto Sans KR" font-size="10.00" fill="#000000">WSA&#45;Rodzice  12.1b. orzeczenie sądu</text></g><!-- process_block_36&#45;&gt;process_block_37 --><g id="edge38" class="edge"><title>process_block_36&#45;&gt;process_block_37</title><path fill="none" stroke="#000000" d="M623,-503.778C623,-498.729 623,-493.123 623,-487.634"/><polygon fill="#000000" stroke="#000000" points="626.5,-487.399 623,-477.4 619.5,-487.4 626.5,-487.399"/></g><!-- process_block_38 --><g id="node37" class="node"><title>process_block_38</title><polygon fill="none" stroke="#000000" points="792.5,-414 453.5,-414 453.5,-378 792.5,-378 792.5,-414"/><text text-anchor="start" x="460.5" y="-393.5" font-family="Open Sans, Noto Sans SC, Noto Sans TC, Noto Sans JP, Noto Sans KR" font-size="10.00" fill="#000000">Rodzice&#45;WSA  12.1c. wniosek o wydanie wyroku wraz z uzasadnieniem</text></g><!-- process_block_37&#45;&gt;process_block_38 --><g id="edge39" class="edge"><title>process_block_37&#45;&gt;process_block_38</title><path fill="none" stroke="#000000" d="M623,-440.778C623,-435.729 623,-430.123 623,-424.634"/><polygon fill="#000000" stroke="#000000" points="626.5,-424.399 623,-414.4 619.5,-424.4 626.5,-424.399"/></g><!-- process_block_39 --><g id="node38" class="node"><title>process_block_39</title><polygon fill="none" stroke="#000000" points="745,-351 501,-351 501,-315 745,-315 745,-351"/><text text-anchor="start" x="508" y="-330.5" font-family="Open Sans, Noto Sans SC, Noto Sans TC, Noto Sans JP, Noto Sans KR" font-size="10.00" fill="#000000">WSA&#45;Rodzice  12.1d. wyrok wraz z uzasadnieniem</text></g><!-- process_block_38&#45;&gt;process_block_39 --><g id="edge40" class="edge"><title>process_block_38&#45;&gt;process_block_39</title><path fill="none" stroke="#000000" d="M623,-377.778C623,-372.729 623,-367.123 623,-361.634"/><polygon fill="#000000" stroke="#000000" points="626.5,-361.399 623,-351.4 619.5,-361.4 626.5,-361.399"/></g><!-- process_block_40 --><g id="node39" class="node"><title>process_block_40</title><polygon fill="none" stroke="#000000" points="787,-288 459,-288 459,-252 787,-252 787,-288"/><text text-anchor="start" x="466" y="-267.5" font-family="Open Sans, Noto Sans SC, Noto Sans TC, Noto Sans JP, Noto Sans KR" font-size="10.00" fill="#000000">Rodzice&#45;NSA  12.1e. skarga kasacyjna w wypadku przegranej w WSA</text></g><!-- process_block_39&#45;&gt;process_block_40 --><g id="edge41" class="edge"><title>process_block_39&#45;&gt;process_block_40</title><path fill="none" stroke="#000000" d="M623,-314.778C623,-309.729 623,-304.123 623,-298.634"/><polygon fill="#000000" stroke="#000000" points="626.5,-298.399 623,-288.4 619.5,-298.4 626.5,-298.399"/></g><!-- process_block_41 --><g id="node40" class="node"><title>process_block_41</title><polygon fill="none" stroke="#000000" points="841.5,-225 404.5,-225 404.5,-189 841.5,-189 841.5,-225"/><text text-anchor="start" x="411.5" y="-204.5" font-family="Open Sans, Noto Sans SC, Noto Sans TC, Noto Sans JP, Noto Sans KR" font-size="10.00" fill="#000000">Rodzice&#45;WSA  12.2. wniosek do WSA w Warszawie o wstrzymanie wykonania postanowienia</text></g><!-- process_block_40&#45;&gt;process_block_41 --><g id="edge42" class="edge"><title>process_block_40&#45;&gt;process_block_41</title><path fill="none" stroke="#000000" d="M623,-251.778C623,-246.729 623,-241.123 623,-235.634"/><polygon fill="#000000" stroke="#000000" points="626.5,-235.399 623,-225.4 619.5,-235.4 626.5,-235.399"/></g><!-- process_block_42 --><g id="node41" class="node"><title>process_block_42</title><polygon fill="none" stroke="#000000" points="729.5,-162 516.5,-162 516.5,-126 729.5,-126 729.5,-162"/><text text-anchor="start" x="523.5" y="-141.5" font-family="Open Sans, Noto Sans SC, Noto Sans TC, Noto Sans JP, Noto Sans KR" font-size="10.00" fill="#000000">WSA&#45;Rodzice  12.2a odpowiedź na wniosek</text></g><!-- process_block_41&#45;&gt;process_block_42 --><g id="edge43" class="edge"><title>process_block_41&#45;&gt;process_block_42</title><path fill="none" stroke="#000000" d="M623,-188.778C623,-183.729 623,-178.123 623,-172.634"/><polygon fill="#000000" stroke="#000000" points="626.5,-172.399 623,-162.4 619.5,-172.4 626.5,-172.399"/></g><!-- process_block_43 --><g id="node42" class="node"><title>process_block_43</title><polygon fill="none" stroke="#000000" points="744.5,-99 501.5,-99 501.5,-63 744.5,-63 744.5,-99"/><text text-anchor="start" x="508.5" y="-78.5" font-family="Open Sans, Noto Sans SC, Noto Sans TC, Noto Sans JP, Noto Sans KR" font-size="10.00" fill="#000000">Rodzice&#45;WSA  12.3. potwierdzenie opłaty sądowej</text></g><!-- process_block_42&#45;&gt;process_block_43 --><g id="edge44" class="edge"><title>process_block_42&#45;&gt;process_block_43</title><path fill="none" stroke="#000000" d="M623,-125.778C623,-120.729 623,-115.123 623,-109.634"/><polygon fill="#000000" stroke="#000000" points="626.5,-109.399 623,-99.3995 619.5,-109.4 626.5,-109.399"/></g><!-- terminator_block_44 --><g id="node43" class="node"><title>terminator_block_44</title><ellipse fill="none" stroke="#000000" cx="623" cy="-18" rx="203.177" ry="18"/><text text-anchor="start" x="458.5" y="-15.5" font-family="Open Sans, Noto Sans SC, Noto Sans TC, Noto Sans JP, Noto Sans KR" font-size="10.00" fill="#000000">Rodzice&#45;Wojewoda  12.4. pismo z prośbą o niepodejmowanie egzekucji</text></g><!-- process_block_43&#45;&gt;terminator_block_44 --><g id="edge45" class="edge"><title>process_block_43&#45;&gt;terminator_block_44</title><path fill="none" stroke="#000000" d="M623,-62.7778C623,-57.7287 623,-52.1226 623,-46.6335"/><polygon fill="#000000" stroke="#000000" points="626.5,-46.3995 623,-36.3995 619.5,-46.3995 626.5,-46.3995"/></g><!-- comment_block_45 --><g id="node44" class="node"><title>comment_block_45</title><polygon fill="none" stroke="#000000" points="754.5,-2718 665.5,-2718 665.5,-2682 760.5,-2682 760.5,-2712 754.5,-2718"/><polyline fill="none" stroke="#000000" points="754.5,-2718 754.5,-2712 "/><polyline fill="none" stroke="#000000" points="760.5,-2712 754.5,-2712 "/><text text-anchor="start" x="674" y="-2701" font-family="Open Sans, Noto Sans SC, Noto Sans TC, Noto Sans JP, Noto Sans KR" font-size="8.00" fill="#000000">  rodzice udają się do</text><text text-anchor="start" x="669.5" y="-2692" font-family="Open Sans, Noto Sans SC, Noto Sans TC, Noto Sans JP, Noto Sans KR" font-size="8.00" fill="#000000">  szpitala w celu porodu</text></g><!-- comment_block_45&#45;&gt;switch_block_1 --><g id="edge46" class="edge"><title>comment_block_45&#45;&gt;switch_block_1</title><path fill="none" stroke="#000000" stroke-dasharray="5,2" d="M713,-2681.78C713,-2673.49 713,-2663.71 713,-2655.4"/></g><!-- comment_block_46 --><g id="node45" class="node"><title>comment_block_46</title><polygon fill="none" stroke="#000000" points="86,-2509 0,-2509 0,-2473 92,-2473 92,-2503 86,-2509"/><polyline fill="none" stroke="#000000" points="86,-2509 86,-2503 "/><polyline fill="none" stroke="#000000" points="92,-2503 86,-2503 "/><text text-anchor="start" x="4" y="-2492" font-family="Open Sans, Noto Sans SC, Noto Sans TC, Noto Sans JP, Noto Sans KR" font-size="8.00" fill="#000000">  3 wizyty patronażowe</text><text text-anchor="start" x="22.5" y="-2483" font-family="Open Sans, Noto Sans SC, Noto Sans TC, Noto Sans JP, Noto Sans KR" font-size="8.00" fill="#000000">  pielęgniarki</text></g><!-- comment_block_46&#45;&gt;terminator_block_2 --><g id="edge47" class="edge"><title>comment_block_46&#45;&gt;terminator_block_2</title><path fill="none" stroke="#000000" stroke-dasharray="5,2" d="M64.0449,-2472.96C76.0358,-2460.96 91.6328,-2445.37 103.146,-2433.85"/></g><!-- comment_block_47 --><g id="node46" class="node"><title>comment_block_47</title><polygon fill="none" stroke="#000000" points="482,-2655 416,-2655 416,-2619 488,-2619 488,-2649 482,-2655"/><polyline fill="none" stroke="#000000" points="482,-2655 482,-2649 "/><polyline fill="none" stroke="#000000" points="488,-2649 482,-2649 "/><text text-anchor="start" x="420" y="-2633.5" font-family="Open Sans, Noto Sans SC, Noto Sans TC, Noto Sans JP, Noto Sans KR" font-size="8.00" fill="#000000">  pomyślny poród</text></g><!-- comment_block_47&#45;&gt;switch_block_5 --><g id="edge48" class="edge"><title>comment_block_47&#45;&gt;switch_block_5</title><path fill="none" stroke="#000000" stroke-dasharray="5,2" d="M488.337,-2618.96C517.414,-2604.52 557.022,-2584.85 580.118,-2573.38"/></g></g></svg>